<mxfile host="app.diagrams.net" modified="2021-12-21T07:30:35.596Z" agent="5.0 (Macintosh; Intel Mac OS X 10_15_7) AppleWebKit/537.36 (KHTML, like Gecko) Chrome/96.0.4664.93 Safari/537.36" etag="N8DvUDUot-MJWr5RoxAR" version="16.0.0" type="github">
  <diagram id="fA2wHg8lNZZr6L5S28As" name="Page-1">
    <mxGraphModel dx="1298" dy="723" grid="1" gridSize="10" guides="1" tooltips="1" connect="1" arrows="1" fold="1" page="1" pageScale="1" pageWidth="850" pageHeight="1100" math="0" shadow="0">
      <root>
        <mxCell id="0" />
        <mxCell id="1" parent="0" />
        <mxCell id="WbtN_dC1lWtPbfFptusc-1" value="" style="ellipse;shape=doubleEllipse;whiteSpace=wrap;html=1;fillColor=#e1d5e7;strokeColor=#9673a6;" vertex="1" parent="1">
          <mxGeometry x="180" y="210" width="100" height="60" as="geometry" />
        </mxCell>
      </root>
    </mxGraphModel>
  </diagram>
</mxfile>
